<svg width="24" height="18" viewBox="0 0 24 18" fill="none" xmlns="http://www.w3.org/2000/svg">
<path d="M2.05349 0H21.3107C22.4416 0 23.3642 0.921607 23.3642 2.05349V15.7434C23.3642 16.8715 22.4457 17.7969 21.3107 17.7969H2.05349C0.925436 17.7969 -3.8147e-06 16.8784 -3.8147e-06 15.7434V2.05349C-3.8147e-06 0.92544 0.9185 0 2.05349 0ZM2.33705 1.36899L11.6385 10.6705L21.0205 1.36899H2.33705ZM21.9952 15.46V2.33044L15.4021 8.86693L21.9952 15.46ZM21.0272 16.4279L14.43 9.83075L12.1183 12.1225C11.8507 12.3878 11.4189 12.387 11.1524 12.1204L8.89846 9.86648L2.33701 16.4279H21.0272ZM1.36899 15.4599L7.93044 8.89846L1.36899 2.33696V15.4599Z" fill="#878787"/>
</svg>
