<svg width="14" height="19" viewBox="0 0 14 19" fill="none" xmlns="http://www.w3.org/2000/svg">
<path d="M13.6111 7H12.4444V5.44443C12.4444 2.44234 10.0021 0 7 0C3.99787 0 1.55557 2.44234 1.55557 5.44443V7H0.388901C0.173943 7 0 7.17394 0 7.3889V17.1111C0 17.969 0.69763 18.6667 1.55557 18.6667H12.4445C13.3024 18.6667 14 17.969 14 17.1111V7.3889C14 7.17394 13.8261 7 13.6111 7ZM2.33333 5.44443C2.33333 2.87109 4.42666 0.777766 7 0.777766C9.57334 0.777766 11.6667 2.87109 11.6667 5.44443V7H10.8889V5.44443C10.8889 3.30021 9.14422 1.55553 7 1.55553C4.85578 1.55553 3.1111 3.30024 3.1111 5.44443V7H2.33333V5.44443ZM10.1111 5.44443V7H3.8889V5.44443C3.8889 3.72899 5.28456 2.33333 7 2.33333C8.71544 2.33333 10.1111 3.72899 10.1111 5.44443ZM13.2222 17.1111C13.2222 17.5398 12.8732 17.8889 12.4445 17.8889H1.55557C1.12682 17.8889 0.777802 17.5398 0.777802 17.1111V7.77777H13.2222V17.1111V17.1111Z" fill="#878787"/>
</svg>
