<svg width="19" height="20" viewBox="0 0 19 20" fill="none" xmlns="http://www.w3.org/2000/svg">
<path d="M2.78246 12.9289C3.81718 11.8398 5.04877 11.0335 6.3925 10.5454C4.95332 9.50199 4.00781 7.75578 4.00781 5.78125C4.00781 2.59348 6.47162 0 9.5 0C12.5284 0 14.9922 2.59348 14.9922 5.78125C14.9922 7.75578 14.0467 9.50199 12.6075 10.5454C13.9512 11.0335 15.1828 11.8398 16.2175 12.9289C18.0118 14.8177 19 17.3289 19 20H17.5156C17.5156 15.3475 13.9198 11.5625 9.5 11.5625C5.08016 11.5625 1.48438 15.3475 1.48438 20H0C0 17.3289 0.988186 14.8177 2.78246 12.9289ZM9.5 10C11.7099 10 13.5078 8.1075 13.5078 5.78125C13.5078 3.455 11.7099 1.5625 9.5 1.5625C7.2901 1.5625 5.49219 3.455 5.49219 5.78125C5.49219 8.1075 7.2901 10 9.5 10Z" fill="#878787"/>
</svg>
